<svg xmlns="http://www.w3.org/2000/svg" xmlns:xlink="http://www.w3.org/1999/xlink" viewBox="0 0 148 35"><defs><style>.cls-1{fill:none;}.cls-2{clip-path:url(#clip-path);}</style><clipPath id="clip-path" transform="translate(0)"><rect class="cls-1" width="148" height="35"/></clipPath></defs><title>Ресурс 1</title><g id="Слой_2" data-name="Слой 2"><g id="Слой_1-2" data-name="Слой 1"><g class="cls-2"><g class="cls-2"><path d="M14.44,25A9.1,9.1,0,0,1,12,26.09a9.85,9.85,0,0,1-2.76.4A9,9,0,0,1,2.43,24,9.59,9.59,0,0,1,0,17a9,9,0,0,1,2.43-6.71A9.22,9.22,0,0,1,9.24,7.9a12.24,12.24,0,0,1,3.64.65V5L9,3.68,10.26,0l7,2.38V21.85L20.67,23l-1.21,3.72ZM11.1,22.73A7.14,7.14,0,0,0,12.88,22V12.19a6.86,6.86,0,0,0-1.69-.54,10.59,10.59,0,0,0-1.92-.19A4.31,4.31,0,0,0,5.81,13,6,6,0,0,0,4.5,17a6.75,6.75,0,0,0,1.31,4.33A4.2,4.2,0,0,0,9.27,23a7.11,7.11,0,0,0,1.83-.27" transform="translate(0)"/><path d="M23.41,25.76v-3l9.75-10.73h-6l-.48,2.22-3.91-.77,1-4.9H38.48v2.83L28.61,22.27h6.62l.47-2.37,3.95.72-1,5.14ZM31.2,6.59l-6.58-4.4L25.91.27l5.33,2.87,5-2.87,1.37,1.92Z" transform="translate(0)"/><path d="M55.57,26.05a10.9,10.9,0,0,1-2.92.44q-4,0-5.85-1.73c-1.24-1.15-1.87-2.93-1.87-5.36V12.08H41.85V8.63H49.4V18.75a4.55,4.55,0,0,0,.8,3,3.31,3.31,0,0,0,2.6.92,9.21,9.21,0,0,0,2.1-.29,10.84,10.84,0,0,0,2.17-.75V12.08H54V8.63h7.55v13L65,22.81l-1.21,3.76-5.33-1.73a13.09,13.09,0,0,1-2.87,1.21" transform="translate(0)"/><path d="M67.56,22.27h3.33V13l-3.76-1.27L68.27,8.2,73.71,10a14.61,14.61,0,0,1,3.21-1.61,11.27,11.27,0,0,1,3.6-.53,6.54,6.54,0,0,1,5.17,1.95,7.66,7.66,0,0,1,1.72,5.22v7.2h3.25v3.49H81.34V22.27H83V15.64q0-3.94-3.52-4a6.72,6.72,0,0,0-2.19.37,7.9,7.9,0,0,0-2,.94v9.27h1.61v3.49H67.56Z" transform="translate(0)"/><path d="M108.88,25.19a4.78,4.78,0,0,1,1.74,4,4.72,4.72,0,0,1-2.53,4.37A12.83,12.83,0,0,1,101.62,35a21,21,0,0,1-5.27-.61,18.06,18.06,0,0,1-3.74-1.34l1.61-3.42A24.31,24.31,0,0,0,98,30.86a15.8,15.8,0,0,0,3.66.42,8.36,8.36,0,0,0,3.58-.57,1.72,1.72,0,0,0,1.12-1.5,1.55,1.55,0,0,0-.69-1.32,4.63,4.63,0,0,0-2.49-.48H97V20.7a6.18,6.18,0,0,1-3-2.18,6,6,0,0,1-1-3.57A6.32,6.32,0,0,1,95.22,9.8a9.26,9.26,0,0,1,6.12-1.9,13,13,0,0,1,2.66.23,7.31,7.31,0,0,1,2.16.8l5.91-2,1.37,3.8-4.78.72a4.25,4.25,0,0,1,.87,1.54,6.49,6.49,0,0,1,.27,1.8,5.6,5.6,0,0,1-2.37,5,10.57,10.57,0,0,1-6.13,1.63h-.78v2.46h3.17a8.24,8.24,0,0,1,5.19,1.38M98.23,12.11a3.22,3.22,0,0,0-1.12,2.61,3,3,0,0,0,1.14,2.45,5.78,5.78,0,0,0,6.26,0,3,3,0,0,0,1.14-2.45,3.19,3.19,0,0,0-1.12-2.61,5.85,5.85,0,0,0-6.3,0" transform="translate(0)"/><polygon points="115.28 25.76 115.28 22.27 118.56 22.27 118.56 4.64 114.8 3.53 115.9 0 123.03 2.19 123.03 22.27 126.32 22.27 126.32 25.76 115.28 25.76"/><path d="M136.14,26.49a9.3,9.3,0,0,1-5.54-1.4A4.76,4.76,0,0,1,128.7,21a4.55,4.55,0,0,1,1.82-3.93,9.08,9.08,0,0,1,5.35-1.32h4.38a5.22,5.22,0,0,0-.94-3.38,3.17,3.17,0,0,0-2.58-1.15,10.77,10.77,0,0,0-3.13.46l-.36,1.88-3.68-.5L130.27,9a19.77,19.77,0,0,1,6.58-1.11,8,8,0,0,1,5.85,2,7.81,7.81,0,0,1,2,5.79V22l3.29,1-1.21,3.6-5-1.68a12,12,0,0,1-5.6,1.49M134,19.23a2.31,2.31,0,0,0-.71,1.82c0,1.45,1,2.18,3.06,2.18a7.39,7.39,0,0,0,3.95-1.11V18.63l-4.27,0a2.91,2.91,0,0,0-2,.64" transform="translate(0)"/></g></g></g></g></svg>