<svg xmlns="http://www.w3.org/2000/svg" width="157" height="189" viewBox="0 0 157 189">
  <defs>
    <style>
      .cls-1 {
        fill: #ebebeb;
        fill-rule: evenodd;
      }
    </style>
  </defs>
  <path class="cls-1" d="M172.85,314.25a7.875,7.875,0,0,0,0,15.75h141.3a7.875,7.875,0,0,0,0-15.75h-62.8V243.375h15.7A55.038,55.038,0,0,0,322,188.25a7.863,7.863,0,0,0-7.85-7.875H290.6a54.687,54.687,0,0,0-39.25,16.616v-0.866A55.038,55.038,0,0,0,196.4,141H172.85a7.863,7.863,0,0,0-7.85,7.875A55.038,55.038,0,0,0,219.95,204h15.7v32.366A54.687,54.687,0,0,0,196.4,219.75H172.85a7.863,7.863,0,0,0-7.85,7.875,55.038,55.038,0,0,0,54.95,55.125h15.7v31.5h-62.8ZM290.6,196.125h14.915a39.281,39.281,0,0,1-38.465,31.5H252.135A39.281,39.281,0,0,1,290.6,196.125Zm-70.65-7.875a39.281,39.281,0,0,1-38.465-31.5H196.4a39.281,39.281,0,0,1,38.465,31.5H219.95Zm0,78.75a39.281,39.281,0,0,1-38.465-31.5H196.4A39.281,39.281,0,0,1,234.865,267H219.95Z" transform="translate(-165 -141)"/>
</svg>
