<svg xmlns="http://www.w3.org/2000/svg" width="20" height="20"><path id="search" d="M309.159 35.263a7.893 7.893 0 105.2 13.829l5.485 5.492a.522.522 0 00.741 0 .532.532 0 000-.748l-5.485-5.484a7.888 7.888 0 00-5.938-13.089zm0 1.052a6.84 6.84 0 11-6.843 6.84 6.834 6.834 0 016.843-6.839zM320.213 55a.786.786 0 01-.557-.23l-5.314-5.32a8.163 8.163 0 111.113-1.112l5.314 5.312a.79.79 0 01-.556 1.35zm-5.844-6.269l5.66 5.666a.257.257 0 00.368 0 .268.268 0 000-.376l-5.66-5.658.162-.186a7.645 7.645 0 10-.716.715zm-5.21 1.528a7.1 7.1 0 117.106-7.1 7.112 7.112 0 01-7.106 7.101zm0-13.681a6.577 6.577 0 106.579 6.577 6.586 6.586 0 00-6.579-6.576z" transform="translate(-301 -35)" fill-rule="evenodd"/></svg>