<?xml version="1.0" encoding="utf-8"?>
<!-- Generator: Adobe Illustrator 21.1.0, SVG Export Plug-In . SVG Version: 6.00 Build 0)  -->
<svg version="1.1" id="Layer_1" xmlns="http://www.w3.org/2000/svg" xmlns:xlink="http://www.w3.org/1999/xlink" x="0px" y="0px"
	 viewBox="0 0 30 30" style="enable-background:new 0 0 30 30;" xml:space="preserve">
<path fill="#FFFFFF" d="M23.2,13.5c0.2-0.3,0.2-0.6-0.1-0.8c-0.3-0.2-0.6-0.2-0.8,0.1l-1.9,2.4v-4.9c0-0.3-0.3-0.6-0.6-0.6s-0.6,0.3-0.6,0.6v4.9
	l-1.9-2.4c-0.2-0.3-0.6-0.3-0.8-0.1c-0.3,0.2-0.3,0.6-0.1,0.8l2.9,3.6v2.5l-1.9-2.4c-0.2-0.3-0.6-0.3-0.8-0.1
	c-0.3,0.2-0.3,0.6-0.1,0.8l2.9,3.6v2.8h-1.4h-6.3v-2.5l3.5-4.4c0.2-0.3,0.2-0.6-0.1-0.8c-0.3-0.2-0.6-0.2-0.8,0.1l-2.6,3.3v-2
	l3.5-4.4c0.2-0.3,0.2-0.6-0.1-0.8c-0.3-0.2-0.6-0.2-0.8,0.1l-2.6,3.3v-2.2l3.5-4.4c0.2-0.3,0.2-0.6-0.1-0.8
	c-0.3-0.2-0.6-0.2-0.8,0.1l-2.6,3.3V4.5c0-0.3-0.3-0.6-0.6-0.6c-0.3,0-0.6,0.3-0.6,0.6v7.4L7.6,8.6C7.4,8.3,7,8.3,6.8,8.5
	C6.5,8.7,6.5,9.1,6.7,9.3l3.5,4.4v2.2l-2.6-3.3c-0.2-0.3-0.6-0.3-0.8-0.1c-0.3,0.2-0.3,0.6-0.1,0.8l3.5,4.4v2l-2.6-3.3
	c-0.2-0.3-0.6-0.3-0.8-0.1c-0.3,0.2-0.3,0.6-0.1,0.8l3.5,4.4v2.5H9c-0.3,0-0.6,0.3-0.6,0.6s0.3,0.6,0.6,0.6h8.7h4.1
	c0.3,0,0.6-0.3,0.6-0.6s-0.3-0.6-0.6-0.6h-1.4v-2.8l2.9-3.6c0.2-0.3,0.2-0.6-0.1-0.8c-0.3-0.2-0.6-0.2-0.8,0.1l-1.9,2.4V17
	L23.2,13.5z"/>
</svg>
