<?xml version="1.0" encoding="utf-8"?>
<!-- Generator: Adobe Illustrator 21.1.0, SVG Export Plug-In . SVG Version: 6.00 Build 0)  -->
<svg version="1.1" id="Layer_1" xmlns="http://www.w3.org/2000/svg" xmlns:xlink="http://www.w3.org/1999/xlink" x="0px" y="0px"
	 viewBox="0 0 30 30" style="enable-background:new 0 0 30 30;" xml:space="preserve">
<path fill="#FFFFFF" d="M21.8,10.2c-1.7,0-2.9,0.4-3.4,1.3c-0.2,0.4-0.2,0.9,0,1.4c-0.1,0.1-0.2,0.1-0.3,0.2c-0.2,0.1-0.6,0.1-1-0.1
	c-0.4-0.2-0.8-0.5-1.1-1.4c-0.4-1.3,0.2-2.4,0.4-2.8c0.4,0.3,1,0.5,1.9,0.5c0.1,0,0.1,0,0.2,0c1.5,0,2.3-0.6,2.7-0.9
	c0.2,0,0.5-0.1,0.9,0c0.6,0.1,1.5-0.1,1.9-0.7c0.2-0.4,0.2-0.8-0.1-1.2c-0.7-1-2.1-2-6.3-2c-2.4,0-4,0.5-4.7,1.4
	c-0.3,0.5-0.4,1-0.2,1.6c0.3,1,1.5,1.2,2.5,1.1c-0.3,0.4-0.7,0.9-1.3,1.5c-0.5,0.5-0.9,0.7-1.2,0.8c0-0.1,0-0.3-0.1-0.4
	C12,9.4,10,8.5,7.2,8.5c-1.7,0-2.9,0.4-3.4,1.3c-0.3,0.5-0.2,1.1,0.1,1.6c0.7,1.1,2,1,2.8,0.7c0.6,0.3,2,1,3.3,1c0.1,0,0.2,0,0.3,0
	c0.9-0.1,1.4-0.4,1.7-0.8c0.2,0,0.6,0.1,1.1,0.3c0.6,0.3,0.9,1.2,1.2,3c0.2,1.4-1.5,2.4-3.2,3.3c-1.3,0.7-1.7,1.8-1.8,2.6H6.8
	c-0.3,0-0.6,0.3-0.6,0.6s0.3,0.6,0.6,0.6h0.8l1,4.4c0.1,0.3,0.3,0.5,0.6,0.5h11.7c0.3,0,0.5-0.2,0.6-0.5l1-4.4H23
	c0.3,0,0.6-0.3,0.6-0.6s-0.3-0.6-0.6-0.6h-7.2c-0.2-0.2-0.6-0.5-0.7-0.9c0-0.1,0-0.3,0.3-0.6c1.2-1.2,4.4-2.5,4.4-2.5
	c0.3-0.1,0.4-0.4,0.3-0.7c-0.1-0.3-0.4-0.5-0.7-0.4l-1.1,0.3c-0.2,0.1-0.5,0.1-0.8-0.1c-0.2-0.2-0.3-0.6-0.3-1.1
	c0.1-0.6,0.8-1.2,1.4-1.5l0.6-0.3c0.7,0.3,1.4,0.2,2,0c0.6,0.3,2,1,3.3,1c0.1,0,0.2,0,0.3,0c1.1-0.1,1.6-0.6,1.9-1
	c0.3-0.5,0.4-1.1,0.3-1.4C26.6,11,24.5,10.2,21.8,10.2z M11.2,11.4c-0.2,0.2-0.5,0.4-1,0.4c-1.4,0.1-3.1-1-3.1-1
	c-0.1-0.1-0.2-0.1-0.3-0.1c-0.1,0-0.2,0-0.3,0.1c0,0-1.1,0.5-1.5-0.1c-0.2-0.2-0.1-0.4-0.1-0.4C5.1,10,5.8,9.6,7.2,9.7
	c2.8,0.1,4,0.9,4.1,1.3C11.3,11,11.3,11.2,11.2,11.4z M13.7,7.1c-0.1-0.2,0-0.4,0.1-0.5c0.2-0.2,0.9-0.9,3.7-0.9
	c3.5,0,4.7,0.8,5.3,1.5c-0.1,0.1-0.3,0.1-0.6,0.1c-0.8-0.2-1.5,0-1.6,0c-0.1,0-0.2,0.1-0.3,0.2c0,0-0.7,0.7-2.1,0.6
	c-1.2,0-1.5-0.5-1.5-0.5c0-0.2-0.1-0.3-0.3-0.4c-0.1-0.1-0.3-0.1-0.5,0C15.2,7.5,13.9,7.6,13.7,7.1z M20.4,26.3H9.6l-0.8-3.4h12.3
	L20.4,26.3z M14.5,19.2c-0.6,0.6-0.6,1.2-0.6,1.6c0,0.3,0.1,0.5,0.3,0.7h-3.7c0.1-0.5,0.4-1.1,1.1-1.5c1.6-0.8,4.2-2.2,3.8-4.6
	c-0.3-1.8-0.7-3.2-1.7-3.8c0.2-0.2,0.5-0.4,0.7-0.6c0,0,0.1-0.1,0.1-0.1c0,0.3,0.1,0.7,0.2,1.1c0.3,1,0.9,1.7,1.7,2.1
	c0.1,0,0.1,0,0.2,0.1c-0.3,0.4-0.6,0.8-0.6,1.3c-0.1,0.9,0.2,1.7,0.7,2.1c0,0,0,0,0,0C16,18.1,15.1,18.6,14.5,19.2z M25.7,13.1
	c-0.2,0.2-0.5,0.4-1,0.4c-1.4,0.1-3.1-1-3.1-1c-0.1-0.1-0.2-0.1-0.3-0.1c-0.1,0-0.2,0-0.3,0.1c0,0-1.1,0.5-1.5-0.1
	c-0.2-0.3-0.1-0.4-0.1-0.4c0.2-0.3,0.9-0.7,2.3-0.6c2.8,0.1,4,0.9,4.1,1.3C25.9,12.7,25.8,12.9,25.7,13.1z"/>
</svg>
