<?xml version="1.0" encoding="utf-8"?>
<!-- Generator: Adobe Illustrator 21.1.0, SVG Export Plug-In . SVG Version: 6.00 Build 0)  -->
<svg version="1.1" id="Layer_1" xmlns="http://www.w3.org/2000/svg" xmlns:xlink="http://www.w3.org/1999/xlink" x="0px" y="0px"
	 viewBox="0 0 30 30" style="enable-background:new 0 0 30 30;" xml:space="preserve">
<path fill="#FFFFFF" d="M19.8,14c1.5-1.4,2.4-3.4,2.3-5c0-1-0.4-1.8-1.1-2.4c-1-0.8-2-0.8-3-0.5c-0.7-1-1.7-1.7-2.8-1.7c-1.1,0-2.1,0.6-2.8,1.6
	c-0.5-0.2-1-0.3-1.5-0.3c0,0,0,0,0,0c-0.8,0-1.5,0.3-2.1,1c-1,1.1-1,2.8-0.2,4.7c1,2.3,3.3,4.5,6,4.8v4c-0.5-0.5-1.1-1.1-1.8-1.6
	c-1.6-1.2-3.7-0.9-3.8-0.9c-0.2,0-0.3,0.1-0.4,0.3s-0.1,0.3-0.1,0.5c0,0.1,0.7,1.9,2.6,3.2c1.2,0.7,2.5,1,3.4,1v3.1
	c0,0.3,0.3,0.6,0.6,0.6s0.6-0.3,0.6-0.6v-3.1c0.1,0,0.1,0,0.1,0c0.9,0,2.3-0.2,3.5-1c2-1.2,2.6-3.1,2.6-3.2c0.1-0.2,0-0.4-0.1-0.5
	c-0.1-0.2-0.2-0.3-0.4-0.3c-0.1,0-2.3-0.3-3.8,0.9c-0.7,0.5-1.4,1.2-1.9,1.8v-4.2C16.5,16.1,18.1,15.6,19.8,14z M11.7,20.7
	c-0.9-0.5-1.4-1.2-1.8-1.8c0.6,0,1.4,0.2,2.1,0.7c0.7,0.5,1.5,1.3,2,1.9C13.4,21.4,12.6,21.2,11.7,20.7z M18.4,19.6
	c0.7-0.5,1.5-0.6,2.1-0.7c-0.3,0.5-0.9,1.2-1.8,1.8c-0.8,0.5-1.7,0.7-2.3,0.8C16.9,20.9,17.6,20.1,18.4,19.6z M12.8,7.7
	c0.8,0.5,1.5,1.2,1.9,1.5c0.1,0.1,0.3,0.2,0.4,0.2c0.2,0,0.3-0.1,0.4-0.2c0,0,0.8-0.9,1.9-1.5c0.3,0.8,0.5,1.7,0.5,2.7
	c0,2.5-1.3,4.7-2.9,4.7c-1.5,0-2.9-2.1-2.9-4.7C12.3,9.4,12.5,8.4,12.8,7.7z M20.2,7.6c0.4,0.3,0.7,0.8,0.7,1.5
	c0.1,1.3-0.7,2.9-2,4.1c-0.2,0.1-0.3,0.3-0.5,0.4c0.4-0.9,0.6-2,0.6-3.2c0-1.2-0.2-2.2-0.6-3.1C19.1,7.1,19.7,7.2,20.2,7.6z
	 M15.1,5.7c0.6,0,1.2,0.4,1.7,1c-0.7,0.4-1.3,0.9-1.7,1.3c-0.4-0.4-1-0.9-1.7-1.3C13.9,6.1,14.5,5.7,15.1,5.7z M9.6,10.9
	C9,9.5,9,8.2,9.6,7.5C10,7.1,10.4,7,10.8,7c0,0,0,0,0,0c0.3,0,0.6,0.1,0.9,0.2c-0.4,0.9-0.7,2-0.7,3.2c0,1.3,0.3,2.5,0.7,3.4
	C10.9,13,10.1,11.9,9.6,10.9z"/>
</svg>
