<?xml version="1.0" encoding="utf-8"?>
<!-- Generator: Adobe Illustrator 21.1.0, SVG Export Plug-In . SVG Version: 6.00 Build 0)  -->
<svg version="1.1" id="Layer_1" xmlns="http://www.w3.org/2000/svg" xmlns:xlink="http://www.w3.org/1999/xlink" x="0px" y="0px"
	 viewBox="0 0 30 30" style="enable-background:new 0 0 30 30;" xml:space="preserve">
<path fill="#FFFFFF" d="M22.4,13.3c-1.4-0.7-3.1-0.7-3.6-0.4c-0.4-0.3-0.9-0.6-1.4-0.8c0.8-0.1,1.6-0.4,2.3-0.8c1.4-0.9,3-4.2,3.2-4.5
	c0.1-0.2,0.1-0.4,0-0.6c-0.1-0.2-0.3-0.3-0.5-0.2c-0.2,0-3.9,0.4-6,1.8c-2.2,1.5-2.1,3.8-2.1,3.9c0,0,0,0,0,0
	c-0.8,0.1-1.8,0.4-2.7,1.2c0-0.6,0-1.3-0.1-1.9c-0.2-1.6-1.7-2.7-1.7-2.8C9.7,8,9.6,8,9.4,8C9.2,8.1,9.1,8.2,9,8.3
	c0,0.1-0.7,1.5-0.3,3.4c0.3,1.2,1,2.3,1.6,2.8c-0.8,1.4-1.2,2.8-1,4.1c-0.6-0.3-1.4-0.4-2.1-0.2c-0.4,0.1-1,0.5-1.2,1.4
	c-0.2,0.8,0,1.3,0.2,1.5c0.4,0.6,1.2,0.7,1.3,0.7c0,0,0,0,0,0c0.3,0,0.6-0.2,0.6-0.6c0-0.3-0.2-0.6-0.6-0.6c-0.1,0-0.3-0.1-0.4-0.2
	c-0.1-0.1,0-0.4,0-0.5c0.1-0.5,0.4-0.6,0.5-0.7c0.6-0.2,1.6,0.3,2.1,0.6c1.5,3.6,6.4,5.2,6.6,5.3c0.1,0,0.1,0,0.2,0
	c0.3,0,0.5-0.2,0.6-0.4c0.1-0.3-0.1-0.6-0.4-0.7c0,0-4.7-1.5-5.9-4.7c-0.5-1.4-0.3-3,0.7-4.7c0.3-0.5,0.6-0.9,0.9-1.2
	c0.2,0.3,0.6,1.1,1.5,1.9c0.9,0.9,1.9,1,2.4,1c0.1,0,0.2,0,0.2,0c0.2,0,0.3-0.1,0.4-0.3c0.1-0.2,0.1-0.3,0-0.5
	c-0.1-0.2-0.7-1.8-1.5-2.4c-0.5-0.4-0.9-0.5-1.3-0.6c0.6-0.1,1.2-0.1,1.7,0c1.8,0.4,3.4,1.8,3.6,2.9c0.2,1.1,0,2-0.5,2.7
	c-0.9,1.1-2.5,1.2-2.5,1.2c-0.3,0-0.6,0.3-0.6,0.6c0,0.3,0.3,0.6,0.6,0.6c0.1,0,2.1-0.2,3.4-1.7c0.7-0.9,1-2.1,0.8-3.5
	c0.2,0.1,0.4,0.3,0.5,0.4c0.7,0.5,1.6,0.6,2.2,0.6c0.5,0,0.8-0.1,0.8-0.1c0.2,0,0.3-0.1,0.4-0.3c0.1-0.2,0.1-0.3,0-0.5
	C24.7,15.6,24.1,14.2,22.4,13.3z M15.4,15.3c-0.2-0.1-0.5-0.2-0.7-0.5c-0.3-0.3-0.6-0.6-0.8-0.9c0.3,0.1,0.5,0.2,0.8,0.4
	C15,14.5,15.2,14.9,15.4,15.3z M17.1,8.6c1.2-0.8,3.1-1.2,4.3-1.4c-0.6,1.1-1.5,2.6-2.2,3c-0.7,0.5-1.6,0.7-2.4,0.7
	c0.1-0.1,0.2-0.2,0.3-0.3c0.8-0.6,2.2-1.4,2.3-1.4c0.3-0.2,0.4-0.5,0.2-0.8s-0.5-0.4-0.8-0.2c-0.1,0-1.5,0.8-2.4,1.5
	c-0.3,0.2-0.5,0.4-0.7,0.6C15.9,9.8,16.3,9.2,17.1,8.6z M9.8,11.5c-0.2-0.7-0.1-1.3,0-1.8c0.3,0.4,0.6,0.8,0.6,1.4
	c0.1,0.6,0.1,1.3,0.1,1.9C10.3,12.6,10,12.1,9.8,11.5z M21.8,15c-0.4-0.3-0.9-0.7-1.3-1c0.4,0.1,0.9,0.2,1.4,0.4
	c0.5,0.3,0.9,0.7,1.2,1C22.7,15.3,22.2,15.2,21.8,15z"/>
</svg>
