<?xml version="1.0" encoding="utf-8"?>
<!-- Generator: Adobe Illustrator 21.1.0, SVG Export Plug-In . SVG Version: 6.00 Build 0)  -->
<svg version="1.1" id="Layer_1" xmlns="http://www.w3.org/2000/svg" xmlns:xlink="http://www.w3.org/1999/xlink" x="0px" y="0px"
	 viewBox="0 0 30 30" style="enable-background:new 0 0 30 30;" xml:space="preserve">
<path fill="#FFFFFF" d="M15.3,24.9c3.9,0,7-3.1,7-7c0-3.6-3.4-6.7-6.5-11.5C15.6,6,15,6,14.8,6.4c-3,4.8-6.5,7.9-6.5,11.5
	C8.3,21.8,11.4,24.9,15.3,24.9z M13.3,11.3c0.5-0.6,1-1.3,1.5-2c0.3-0.4,0.8-0.4,1.1,0c0.5,0.7,1,1.4,1.4,2c1.9,2.6,3.5,4.7,3.5,6.7
	c0,3-2.4,5.4-5.4,5.4c-3,0-5.4-2.4-5.4-5.4C9.8,16,11.4,13.9,13.3,11.3z"/>
</svg>
