<?xml version="1.0" encoding="utf-8"?>
<!-- Generator: Adobe Illustrator 21.1.0, SVG Export Plug-In . SVG Version: 6.00 Build 0)  -->
<svg version="1.1" id="Layer_1" xmlns="http://www.w3.org/2000/svg" xmlns:xlink="http://www.w3.org/1999/xlink" x="0px" y="0px"
	 viewBox="0 0 30 30" style="enable-background:new 0 0 30 30;" xml:space="preserve">
<g>
	<path fill="#FFFFFF" d="M18,18.8c0-1.8,0.1-9.5,0.1-11c0-0.9-0.1-3.6-2.7-3.6c0,0,0,0,0,0c-2.5,0-2.8,1.9-2.9,3.8c-0.1,1.8,0,9.3,0,11
		c-0.6,0.4-1.7,1.5-1.7,3.9c0,1.1,0.5,2.2,1.3,3c0.9,0.9,2.1,1.3,3.3,1.3c0,0,0,0,0,0c2.2,0,4.6-1.5,4.6-4.7
		C19.9,20.2,18.7,19.1,18,18.8z M15.3,25.9C15.3,25.9,15.3,25.9,15.3,25.9c-1,0-1.9-0.3-2.5-1c-0.6-0.6-0.9-1.4-0.9-2.1
		c0-2.4,1.3-3,1.4-3.1c0.2-0.1,0.4-0.3,0.4-0.5c0-0.1-0.1-9.4,0-11.3c0.1-2.3,0.6-2.6,1.7-2.6c0,0,0,0,0,0c0.9,0,1.5,0.4,1.5,2.5
		c0,1.6-0.1,11.3-0.1,11.4c0,0.3,0.2,0.5,0.4,0.6c0,0,1.5,0.5,1.5,2.8C18.7,24.9,17,25.9,15.3,25.9z"/>
	<path fill="#FFFFFF" d="M11.3,9.8c0-0.3-0.3-0.6-0.6-0.6H10V8.6C10,8.3,9.7,8,9.4,8C9.1,8,8.8,8.3,8.8,8.6v0.7H8.2c-0.3,0-0.6,0.3-0.6,0.6
		c0,0.3,0.3,0.6,0.6,0.6h0.7v0.7c0,0.3,0.3,0.6,0.6,0.6c0.3,0,0.6-0.3,0.6-0.6v-0.7h0.7C11,10.4,11.3,10.2,11.3,9.8z"/>
	<path fill="#FFFFFF" d="M22.3,15.9h-2.5c-0.3,0-0.6,0.3-0.6,0.6s0.3,0.6,0.6,0.6h2.5c0.3,0,0.6-0.3,0.6-0.6S22.6,15.9,22.3,15.9z"/>
	<path fill="#FFFFFF" d="M15.9,20.3L15.8,6.7c0-0.3-0.3-0.6-0.6-0.6c-0.3,0-0.6,0.3-0.6,0.6l0.1,13.6c-0.9,0.3-1.6,1.1-1.6,2.1c0,1.2,1,2.2,2.2,2.2
		s2.2-1,2.2-2.2C17.6,21.5,16.9,20.6,15.9,20.3z M15.3,23.5c-0.6,0-1-0.5-1-1s0.5-1,1-1c0.6,0,1,0.5,1,1S15.9,23.5,15.3,23.5z"/>
</g>
</svg>
