<?xml version="1.0" encoding="utf-8"?>
<!-- Generator: Adobe Illustrator 21.1.0, SVG Export Plug-In . SVG Version: 6.00 Build 0)  -->
<svg version="1.1" id="Layer_1" xmlns="http://www.w3.org/2000/svg" xmlns:xlink="http://www.w3.org/1999/xlink" x="0px" y="0px"
	 viewBox="0 0 30 30" style="enable-background:new 0 0 30 30;" xml:space="preserve">
<path fill="#FFFFFF" d="M6.5,15.1C6.2,15.8,6,17,6.7,18.4c0.8,1.5,2.4,1.8,3.4,1.7c0.2,0.4,0.7,0.9,1.2,1.4c0.7,0.6,1.6,0.9,2.9,0.9v4.4H9
	c-0.3,0-0.6,0.3-0.6,0.6C8.4,27.8,8.7,28,9,28h11.5c0.3,0,0.6-0.3,0.6-0.6c0-0.3-0.3-0.6-0.6-0.6h-5.1v-4.3c0.1,0,0.2,0,0.3,0
	c0.9,0,2.1-0.2,3.5-1.2c1.7-1.2,2.1-2.7,2.2-3.5c1.3-0.4,3.2-1.6,3.2-4.5c0-2.3-1.5-3.5-2.7-3.9c0.1-0.9,0.3-2.6-0.7-4.1
	c-1.1-1.7-3.1-1.7-3.9-1.6C16.9,3.1,16,2,14.5,2c-1.4,0-2.2,1-2.6,1.8c-0.5,0-1.4,0.1-2.3,0.8C8.7,5.3,8.3,6.2,8.2,6.8
	C7,7,5.2,7.9,4.6,10.2C4,12.6,5.4,14.3,6.5,15.1z M5.7,10.5c0.6-2.5,2.9-2.6,3-2.6c0.3,0,0.5-0.2,0.6-0.5c0,0,0.1-1.1,1-1.9
	C11.2,4.8,12.1,5,12.1,5c0.3,0.1,0.6-0.1,0.7-0.4c0-0.1,0.4-1.4,1.6-1.4c1.3,0,1.9,1.3,2,1.4c0.1,0.3,0.4,0.4,0.7,0.3
	c0,0,2.2-0.4,3.2,1.1c1,1.6,0.4,3.7,0.4,3.7c0,0.2,0,0.3,0.1,0.5c0.1,0.1,0.2,0.2,0.4,0.3c0.1,0,2.3,0.5,2.3,2.9
	c0,3-2.5,3.4-2.6,3.4c-0.3,0-0.5,0.3-0.5,0.6c0,0.1,0.1,1.7-1.7,3c-1.3,0.9-2.5,1-3.2,0.9V18c0.6-0.1,1.9-0.4,2.9-1.5
	c1.5-1.6,1.4-3.8,1.4-3.9c0-0.3-0.3-0.6-0.6-0.6c-0.3,0-0.6,0.3-0.6,0.6c0,0,0.1,1.8-1.1,3c-0.7,0.8-1.6,1-2.1,1.1V9.2
	c0-0.3-0.3-0.6-0.6-0.6s-0.6,0.3-0.6,0.6v5.7c-0.4,0-1.6,0-2.6-1.1c-1-1.1-1.1-2.8-1.1-2.8c0-0.3-0.3-0.6-0.6-0.5
	c-0.3,0-0.6,0.3-0.5,0.6c0,0.1,0.2,2.1,1.4,3.5c1.1,1.3,2.6,1.5,3.3,1.5c0.1,0,0.1,0,0.2,0v5.2c-1-0.1-1.7-0.3-2.2-0.7
	c-0.7-0.6-1.2-1.4-1.2-1.4c-0.1-0.2-0.4-0.3-0.6-0.3c-0.1,0-1.8,0.3-2.5-1.1c-0.8-1.5-0.1-2.6,0-2.6c0.1-0.1,0.1-0.3,0.1-0.5
	c0-0.2-0.1-0.3-0.3-0.4C7.5,14.4,5.1,13,5.7,10.5z"/>
</svg>
