<?xml version="1.0" encoding="utf-8"?>
<!-- Generator: Adobe Illustrator 21.1.0, SVG Export Plug-In . SVG Version: 6.00 Build 0)  -->
<svg version="1.1" id="Layer_1" xmlns="http://www.w3.org/2000/svg" xmlns:xlink="http://www.w3.org/1999/xlink" x="0px" y="0px"
	 viewBox="0 0 30 30" style="enable-background:new 0 0 30 30;" xml:space="preserve">
<g>
	<path fill="#FFFFFF" d="M14.7,21.1c2.9,0,5.3-2.4,5.3-5.3c0-2.9-2.4-5.3-5.3-5.3s-5.3,2.4-5.3,5.3C9.4,18.7,11.8,21.1,14.7,21.1z M14.7,11.9
		c2.1,0,3.8,1.7,3.8,3.8c0,2.1-1.7,3.8-3.8,3.8s-3.8-1.7-3.8-3.8C10.9,13.6,12.6,11.9,14.7,11.9z"/>
	<path fill="#FFFFFF" d="M14.7,8.7c0.4,0,0.7-0.3,0.7-0.7V5.4c0-0.4-0.3-0.7-0.7-0.7S14,5,14,5.4V8C14,8.4,14.3,8.7,14.7,8.7z"/>
	<path fill="#FFFFFF" d="M8.8,10.8C8.9,10.9,9.1,11,9.3,11c0.2,0,0.4-0.1,0.5-0.2c0.3-0.3,0.3-0.8,0-1L7.9,7.9c-0.3-0.3-0.8-0.3-1,0
		C6.8,8,6.7,8.2,6.7,8.4c0,0.2,0.1,0.4,0.2,0.5L8.8,10.8z"/>
	<path fill="#FFFFFF" d="M7.7,15.7C7.7,15.3,7.4,15,7,15l-2.6,0c-0.4,0-0.7,0.3-0.7,0.7c0,0.4,0.3,0.7,0.7,0.7l2.6,0C7.4,16.5,7.7,16.1,7.7,15.7z"
		/>
	<path fill="#FFFFFF" d="M8.8,20.7l-1.9,1.9c-0.1,0.1-0.2,0.3-0.2,0.5c0,0.2,0.1,0.4,0.2,0.5c0.1,0.1,0.3,0.2,0.5,0.2s0.4-0.1,0.5-0.2l1.9-1.9
		c0.1-0.1,0.2-0.3,0.2-0.5s-0.1-0.4-0.2-0.5C9.5,20.4,9,20.4,8.8,20.7z"/>
	<path fill="#FFFFFF" d="M14,23.5v2.6c0,0.4,0.3,0.7,0.7,0.7s0.7-0.3,0.7-0.7v-2.6c0-0.4-0.3-0.7-0.7-0.7S14,23.1,14,23.5z"/>
	<path fill="#FFFFFF" d="M19.7,20.7c-0.1,0.1-0.2,0.3-0.2,0.5s0.1,0.4,0.2,0.5l1.9,1.9c0.1,0.1,0.3,0.2,0.5,0.2c0.2,0,0.4-0.1,0.5-0.2
		c0.1-0.1,0.2-0.3,0.2-0.5c0-0.2-0.1-0.4-0.2-0.5l-1.9-1.9C20.4,20.4,20,20.4,19.7,20.7z"/>
	<path fill="#FFFFFF" d="M25.1,15h-2.6c-0.4,0-0.7,0.3-0.7,0.7c0,0.4,0.3,0.7,0.7,0.7h2.6c0.4,0,0.7-0.3,0.7-0.7C25.8,15.3,25.5,15,25.1,15z"/>
	<path fill="#FFFFFF" d="M20.2,11c0.2,0,0.4-0.1,0.5-0.2l1.9-1.9c0.1-0.1,0.2-0.3,0.2-0.5c0-0.2-0.1-0.4-0.2-0.5c-0.3-0.3-0.8-0.3-1,0l-1.9,1.9
		c-0.3,0.3-0.3,0.8,0,1C19.8,10.9,20,11,20.2,11z"/>
</g>
</svg>
