<?xml version="1.0" encoding="utf-8"?>
<!-- Generator: Adobe Illustrator 21.1.0, SVG Export Plug-In . SVG Version: 6.00 Build 0)  -->
<svg version="1.1" id="Layer_1" xmlns="http://www.w3.org/2000/svg" xmlns:xlink="http://www.w3.org/1999/xlink" x="0px" y="0px"
	 viewBox="0 0 30 30" style="enable-background:new 0 0 30 30;" xml:space="preserve">
<path fill="#FFFFFF" d="M15.2,5.1C15,5,14.7,5,14.5,5.1C14.3,5.3,9.7,8.8,7.8,13c-1.1,2.5-1.1,4.8,0,6.5c0.9,1.3,2.3,2,3.8,1.9
	c1.2-0.1,2.1-0.6,2.7-1.1v6.2c0,0.3,0.3,0.6,0.6,0.6s0.6-0.3,0.6-0.6v-5.9c0.7,0.5,1.6,0.9,2.6,0.9c0.1,0,0.3,0,0.4,0
	c1.5-0.1,2.7-1,3.6-2.3c1-1.6,1.2-3.8,0.5-5.7C21,9.6,15.4,5.3,15.2,5.1z M21,18.6c-0.6,1-1.6,1.6-2.7,1.8c-1.3,0.1-2.4-0.7-2.9-1.3
	v-1.5l2.2-2.5c0.2-0.2,0.2-0.6-0.1-0.8c-0.2-0.2-0.6-0.2-0.8,0.1l-1.3,1.5v-1l2.2-2.5c0.2-0.2,0.2-0.6-0.1-0.8
	c-0.2-0.2-0.6-0.2-0.8,0.1l-1.3,1.5v-2.5c0-0.3-0.3-0.6-0.6-0.6s-0.6,0.3-0.6,0.6V13l-1.6-1.6c-0.2-0.2-0.6-0.2-0.8,0
	s-0.2,0.6,0,0.8l2.4,2.4v1.1l-1.6-1.6c-0.2-0.2-0.6-0.2-0.8,0c-0.2,0.2-0.2,0.6,0,0.8l2.4,2.4v1.1c-0.1,0-0.1,0.1-0.1,0.1
	c0,0-0.9,1.4-2.6,1.5c-1.1,0-2.2-0.5-2.8-1.4c-0.9-1.3-0.8-3.2,0.1-5.3c1.5-3.3,4.9-6.2,6-7.2c1.3,1,5.4,4.6,6.5,7.6
	C21.9,15.5,21.8,17.2,21,18.6z"/>
</svg>
