<?xml version="1.0" encoding="utf-8"?>
<!-- Generator: Adobe Illustrator 21.1.0, SVG Export Plug-In . SVG Version: 6.00 Build 0)  -->
<svg version="1.1" id="Layer_1" xmlns="http://www.w3.org/2000/svg" xmlns:xlink="http://www.w3.org/1999/xlink" x="0px" y="0px"
	 viewBox="0 0 30 30" style="enable-background:new 0 0 30 30;" xml:space="preserve">
<path fill="#FFFFFF" d="M9.9,16.8c-1.3-0.2-2-1.5-2-1.5C7.8,15.1,7.6,15,7.4,15C7.2,15,7,15,6.9,15.2c0,0.1-1.1,1.5-0.1,3.2
	c0.7,1.3,2.3,1.7,4.6,1.3c0.4-0.1,1-0.1,1.2,0.3c0,0,0,0.1-0.1,0.2c-0.1,0.1-0.3,0.4-1.2,0.5c-1.5,0.1-2.8-0.3-2.8-0.3
	c-0.3-0.1-0.6,0.1-0.7,0.4c-0.1,0.3-0.2,1.3,2.1,2.4c1.5,0.7,3,0.2,4-0.2c0.1,1,0.4,1.8,0.4,1.8c0.1,0.3,0.3,0.4,0.6,0.4
	c0.1,0,0.1,0,0.2,0c0.3-0.1,0.5-0.4,0.4-0.7c0,0-0.2-0.6-0.3-1.5c0.6,0.3,1.4,0.6,2.4,0.8c0.3,0.1,0.6,0.1,0.8,0.1
	c1.8,0,2.8-1.2,2.9-1.3c0.2-0.2,0.2-0.4,0.1-0.6c-0.1-0.2-0.3-0.3-0.6-0.3c0,0-1.1,0-2-0.3c-0.9-0.3-1.1-0.5-1.6-1
	c-0.1-0.2,0-0.3,0-0.3c0.1-0.1,0.1-0.1,0.1,0c0.1,0.1,0.2,0.1,0.4,0.2c0.8,0.5,2,1.2,3.9,1.1c2.1-0.1,2.7-2.2,2.8-3.3
	c0-0.2-0.1-0.4-0.3-0.5c-0.2-0.1-0.4-0.1-0.6,0c0,0-0.6,0.4-1.6,0.6c-1.1,0.2-2.1-0.3-3.3-0.9c-0.3-0.2-0.5-0.3-0.5-0.5
	c0-0.2,0.2-0.3,0.5-0.3c0.3,0,0.5,0.1,0.9,0.3c0.5,0.2,1.1,0.5,2,0.5c1.4,0,2.2-0.7,2.8-2.4c0.6-1.8-0.3-3.8-0.4-3.9
	c-0.1-0.2-0.4-0.4-0.6-0.3c-0.3,0-0.5,0.2-0.5,0.5c0,0-0.2,1.4-1.9,1.9c-1,0.3-1.5,0.2-1.6,0.1c0,0,0,0-0.1-0.1c0-0.2,0-0.3,0.8-0.6
	c0.2-0.1,0.4-0.2,0.7-0.3c1.7-0.7,1.8-2.1,1.7-3.2c-0.1-1.3-1.9-2.4-2.1-2.5c-0.2-0.1-0.5-0.1-0.7,0.1c-0.2,0.2-0.2,0.4-0.1,0.7
	c0,0,0.1,0.3,0,0.8c0,0.7-0.3,0.8-0.7,0.8c-0.4,0-0.6,0-0.6-0.8c0-0.4,0.7-1.3,1.3-1.9c0.2-0.1,0.2-0.4,0.2-0.6
	c-0.1-0.2-0.2-0.4-0.4-0.4c0,0-0.6-0.2-1.2-0.5c-0.4-0.3-0.8-0.9-0.9-1.1C17,3.1,16.8,3,16.5,3c-0.2,0-0.4,0.2-0.5,0.4
	c0,0-0.2,0.4-0.8,0.9c-0.7,0.5-1.4,0.8-1.4,0.8c-0.2,0.1-0.3,0.3-0.4,0.5c0,0.2,0.1,0.4,0.2,0.6c0,0,0.6,0.5,1.3,1
	c0.1,0.1,0.2,0.3,0.3,0.6c0.1,0.4,0,0.8-0.1,0.9c-0.2,0.2-0.5,0.5-1.4-0.1C13.2,8,13,6.9,13,6.5c0-0.2-0.1-0.4-0.3-0.5
	c-0.2-0.1-0.4-0.1-0.6-0.1c-0.1,0-1.9,0.8-1.9,2.7c-0.1,1.9,2,2.6,2.8,2.9l0.1,0c0.1,0,0.2,0.2,0.3,0.4c0.1,0.2,0,0.4,0,0.4
	c-0.1,0.2-0.8,0.5-1.9-0.3C10.1,11,9.9,9.5,9.9,9.4c0-0.2-0.2-0.4-0.4-0.5C9.2,8.9,9,8.9,8.8,9.1L8.3,9.7c-0.7,0.8-1.6,3.1-0.6,4.7
	c1.1,1.7,3.5,1.9,4.6,1.8c0.2,0,0.3,0,0.4,0.1c0,0.1,0,0.2,0,0.3C12.5,16.7,11.8,17.1,9.9,16.8z M13.8,15.8c-0.2-0.5-0.7-1-1.6-0.8
	c-1,0.1-2.8-0.1-3.5-1.2c-0.6-1-0.1-2.4,0.3-3c0.3,0.7,0.8,1.5,1.8,2.3c1.5,1.1,2.8,0.9,3.5,0.2c0.3-0.3,0.4-0.9,0.3-1.5
	c-0.1-0.6-0.5-1.1-1-1.3l-0.1,0c-1-0.4-2-0.9-2-1.7c0-0.5,0.2-0.9,0.5-1.1c0.2,0.6,0.5,1.5,1.2,2c1.5,1,2.4,0.4,2.9,0
	c0.4-0.4,0.5-1.1,0.5-1.7c-0.1-0.7-0.3-1.3-0.7-1.6c-0.2-0.1-0.4-0.3-0.6-0.4c0.2-0.1,0.5-0.3,0.8-0.5c0.2-0.2,0.4-0.4,0.6-0.5
	c0.2,0.3,0.5,0.6,0.9,0.8c0.2,0.1,0.4,0.2,0.6,0.3c-0.5,0.6-1.1,1.4-1.1,2.1c0,1.3,0.6,2,1.7,2c1.1,0,1.8-0.6,1.9-1.8
	c0.3,0.3,0.5,0.5,0.5,0.8c0.1,1-0.1,1.6-1,2c-0.2,0.1-0.5,0.2-0.6,0.3c-0.9,0.3-1.6,0.6-1.6,1.8c0,0.4,0.2,0.8,0.6,1
	c0.7,0.5,1.8,0.3,2.7,0c1-0.3,1.6-0.8,2-1.3c0.1,0.5,0.1,1.1-0.1,1.7c-0.5,1.5-1.1,1.6-1.6,1.6c-0.7,0-1.1-0.2-1.5-0.4
	c-0.4-0.2-0.9-0.4-1.5-0.4c-0.8,0-1.4,0.6-1.6,1.3c-0.1,0.6,0.1,1.3,1.1,1.8c1.4,0.7,2.6,1.2,4,1c0.4-0.1,0.7-0.1,1-0.2
	c-0.2,0.5-0.6,1.1-1.4,1.1c-1.5,0.1-2.5-0.5-3.2-1c-0.2-0.1-0.3-0.2-0.5-0.3c-0.6-0.3-1.2-0.2-1.6,0.4c-0.4,0.5-0.4,1.3,0,1.8
	c0.6,0.7,1,1,2,1.3c0.2,0.1,0.4,0.2,0.7,0.2c-0.4,0.1-0.8,0.1-1.2,0c-1.5-0.3-2.5-0.9-2.8-1.1c0-0.8,0-1.6,0.2-2.3
	c0.3-1,0.6-1.7,0.8-2.3c0.3-0.9,0.6-1.6,0.8-2.6c0.3-1.7,0.3-2.3,0.3-2.3c0-0.3-0.2-0.6-0.5-0.6c-0.3,0-0.6,0.2-0.6,0.5
	c0,0,0,0.6-0.3,2.2c-0.1,0.9-0.4,1.5-0.7,2.4c-0.2,0.6-0.5,1.4-0.8,2.4c-0.3,0.9-0.3,1.9-0.3,2.9c-0.7,0.4-2.1,1.1-3.3,0.5
	c-0.2-0.1-0.4-0.2-0.6-0.3c0.5,0,1,0.1,1.6,0c1.2-0.1,1.8-0.6,2.1-1c0.3-0.4,0.3-0.9,0.2-1.3c-0.2-0.4-0.7-1.4-2.5-1
	c-1.7,0.3-2.9,0.1-3.3-0.7c-0.2-0.4-0.3-0.8-0.3-1.1c0.5,0.5,1.2,1,2.1,1.2c1.6,0.3,3,0.1,3.7-0.5C13.9,17.1,14.1,16.4,13.8,15.8z"
	/>
</svg>
