<?xml version="1.0" encoding="utf-8"?>
<!-- Generator: Adobe Illustrator 21.1.0, SVG Export Plug-In . SVG Version: 6.00 Build 0)  -->
<svg version="1.1" id="Layer_1" xmlns="http://www.w3.org/2000/svg" xmlns:xlink="http://www.w3.org/1999/xlink" x="0px" y="0px"
	 viewBox="0 0 30 30" style="enable-background:new 0 0 30 30;" xml:space="preserve">
<path fill="#FFFFFF" d="M23.7,7.9c-0.3-0.2-0.6-0.1-0.8,0.2c-0.8,1.2-2,3-2.8,4l-0.8-0.8l3.2-3.8c0.2-0.2,0.2-0.6-0.1-0.8c-0.2-0.2-0.6-0.2-0.8,0.1
	l-3.2,3.7L17.9,10c1.2-1.4,2.8-3.4,2.9-3.5C21,6.3,21,5.9,20.7,5.7c-0.3-0.2-0.6-0.2-0.8,0.1c0,0-2.9,3.5-3.8,4.5
	c-1.2,1.3-0.8,2.8-0.3,3.7l-0.2,0.3c-0.7-0.8-1.4-1.5-2-2.2c-2.7-3-4.9-5.1-5.4-5.4C8.1,6.6,8,6.6,7.9,6.6c-0.1,0-0.8,0-1.1,0.4
	C6.6,7.2,6.4,7.6,6.6,8.1c0.3,0.9,3.8,7.7,5.3,9.1C11,18,9.4,19.5,8.9,20.1c-2,2.4-1.1,3.6-0.7,4c0.3,0.3,0.7,0.4,1.1,0.4
	c0.1,0,0.1,0,0.2,0c0.6-0.1,1.6-0.4,2.8-1.9c0.9-1.2,2.1-3.1,2.8-4.2c0.6,1.2,1.6,3.2,2.4,4.2c0.9,1.2,1.8,1.8,2.7,1.9
	c0,0,0.1,0,0.1,0c0.4,0,0.8-0.2,1.1-0.5c1-1,0.7-2.5-1-4.5c-0.5-0.6-1.7-1.8-3-3.2c-0.3-0.4-0.7-0.7-1-1.1l0.4-0.5
	c0.3,0.1,0.6,0.1,1.1,0.1c0.7,0,1.6-0.2,2.3-0.9c0.7-0.7,3.4-4.7,3.8-5.2C24.1,8.4,24,8.1,23.7,7.9z M11.4,21.9
	c-1,1.2-1.7,1.4-2,1.5c-0.2,0-0.3,0-0.4-0.1c-0.6-0.6,0.5-1.9,0.8-2.3c0.5-0.6,2.4-2.3,3.1-3c0.3,0.1,0.7,0.2,1,0.2
	C13.2,19.2,12.2,20.9,11.4,21.9z M19.5,20.2c0.7,0.8,1.7,2.3,1,2.9c-0.1,0.1-0.2,0.1-0.3,0.1c-0.2,0-0.8-0.1-1.8-1.4
	c-1.1-1.5-2.7-5-2.7-5c0,0,0,0,0,0c0-0.1-0.1-0.2-0.2-0.3c0,0-0.1,0-0.1-0.1c0,0,0,0,0,0c0,0,0,0,0,0c-0.1,0-0.1,0-0.2,0
	c0,0,0,0,0,0c0,0,0,0,0,0c-0.1,0-0.1,0-0.2,0c0,0,0,0,0,0c0,0-0.1,0-0.1,0.1c0,0,0,0,0,0c-0.1,0.1-1.2,0.7-2.2-0.2
	c-1.2-1.2-4.6-7.6-4.9-8.6c0.7,0.5,2.5,2.3,5,5c0.8,0.9,1.6,1.8,2.5,2.7c0,0,0,0,0,0c0.5,0.5,0.9,1,1.4,1.5
	C17.9,18.5,19.1,19.7,19.5,20.2z M16.9,13.5c-0.2-0.4-0.8-1.4,0.1-2.4c0-0.1,0.1-0.1,0.2-0.2l2.2,2.1c0,0,0,0,0,0
	C18.4,13.9,17.3,13.6,16.9,13.5z"/>
</svg>
