<?xml version="1.0" encoding="utf-8"?>
<!-- Generator: Adobe Illustrator 21.1.0, SVG Export Plug-In . SVG Version: 6.00 Build 0)  -->
<svg version="1.1" id="Layer_1" xmlns="http://www.w3.org/2000/svg" xmlns:xlink="http://www.w3.org/1999/xlink" x="0px" y="0px"
	 viewBox="0 0 30 30" style="enable-background:new 0 0 30 30;" xml:space="preserve">
<path fill="#FFFFFF" d="M21.7,7.4c-0.4,0-1.8,0.2-3.3,1c-0.3-0.9-1.3-2.9-2.6-3.6c-0.7-0.4-1.2-0.4-2.1,0.1c-1.1,0.7-1.8,2.3-2.1,3.2
	c-1.4-0.7-2.8-0.8-3.2-0.8c0,0,0,0,0,0l0,0.6V7.4c-0.3,0-0.5,0.2-0.6,0.4c-0.1,0.3,0,0.5,0.3,0.7c0,0,0.8,0.5,0.9,1.6
	c0,0.2,0,0.5,0.1,0.8c0.1,1.2,0.2,2.5,1.2,4c1.4,2,3.5,2.4,4.3,2.5v3.5c-0.6-0.6-1.3-1.3-2-1.9C11,17.8,8.9,18,8.8,18.1
	c-0.2,0-0.3,0.1-0.4,0.3c-0.1,0.2-0.1,0.3-0.1,0.5c0,0.1,0.7,1.9,2.6,3.2c1.2,0.7,2.5,1,3.5,1c0.1,0,0.1,0,0.2,0V26
	c0,0.3,0.3,0.6,0.6,0.6s0.6-0.3,0.6-0.6V23c0.9,0,2.2-0.3,3.3-1c2-1.2,2.6-3.1,2.6-3.2c0.1-0.2,0-0.4-0.1-0.5s-0.2-0.3-0.4-0.3
	c-0.1,0-2.2-0.3-3.8,0.9c-0.6,0.4-1.2,1-1.7,1.5v-3.2c0.9-0.1,2.8-0.7,4-2.4c1-1.5,1.1-2.8,1.2-4c0-0.3,0-0.5,0.1-0.8
	C21.2,9.1,22,8.6,22,8.5c0.2-0.1,0.3-0.4,0.3-0.7C22.2,7.6,22,7.4,21.7,7.4z M11.5,21c-0.9-0.5-1.4-1.2-1.8-1.8
	c0.6,0,1.4,0.2,2.1,0.7c0.7,0.5,1.5,1.3,2,1.9C13.2,21.7,12.4,21.5,11.5,21z M18.2,19.9c0.7-0.5,1.5-0.6,2.1-0.7
	c-0.3,0.5-0.9,1.2-1.8,1.8c-0.8,0.5-1.7,0.7-2.3,0.8C16.7,21.2,17.5,20.4,18.2,19.9z M14.4,6c0.5-0.3,0.5-0.3,0.9-0.1
	c1,0.5,1.8,2.4,2.1,3.2c-0.6,0.5-1.2,1.1-1.6,1.9c-0.3,0.7-0.6,1.3-0.8,1.9c-0.2-0.7-0.5-1.5-0.9-2.3c-0.4-0.7-0.9-1.3-1.4-1.7
	C12.9,8.1,13.5,6.6,14.4,6z M11.3,14.2c-0.9-1.2-0.9-2.3-1-3.4c0-0.3,0-0.5-0.1-0.8C10.1,9.5,10,9.1,9.8,8.8c1,0.3,2.4,0.9,3.2,2.3
	c1.1,2.1,1.3,4,1.3,5C13.6,16,12.2,15.5,11.3,14.2z M19.9,10c0,0.3,0,0.5-0.1,0.8c-0.1,1.1-0.1,2.2-1,3.4c-1,1.3-2.4,1.8-3.1,1.9
	c0-0.8,0-2.5,1.1-4.5c0.8-1.5,2.2-2.3,3.4-2.6C20.1,9.3,20,9.6,19.9,10z"/>
</svg>
