<?xml version="1.0" encoding="utf-8"?>
<!-- Generator: Adobe Illustrator 21.1.0, SVG Export Plug-In . SVG Version: 6.00 Build 0)  -->
<svg version="1.1" id="Layer_1" xmlns="http://www.w3.org/2000/svg" xmlns:xlink="http://www.w3.org/1999/xlink" x="0px" y="0px"
	 viewBox="0 0 30 30" style="enable-background:new 0 0 30 30;" xml:space="preserve">
<path fill="#FFFFFF" d="M13.7,21.1v3.7h-3.1c-0.3,0-0.6,0.3-0.6,0.6c0,0.3,0.3,0.6,0.6,0.6h7.5c0.3,0,0.6-0.3,0.6-0.6c0-0.3-0.3-0.6-0.6-0.6h-3.3
	v-3.7c4.3-0.3,7.7-3.9,7.7-8.2c0-4.5-3.7-8.2-8.2-8.2s-8.2,3.7-8.2,8.2C6.1,17.2,9.5,20.8,13.7,21.1z M14.4,5.8
	c3.9,0,7.1,3.2,7.1,7.1c0,3.7-2.9,6.8-6.5,7v-2.6c0.7,0,1.8-0.2,2.7-1.1c1.3-1.2,1.5-2.9,1.5-3c0-0.3-0.2-0.6-0.5-0.7
	c-0.3,0-0.6,0.2-0.7,0.5c0,0-0.2,1.4-1.2,2.3c-0.7,0.6-1.4,0.8-1.9,0.8v-5.9c0-0.3-0.3-0.6-0.6-0.6s-0.6,0.3-0.6,0.6v4.4
	c-0.3,0-1.1-0.1-1.7-0.8c-0.7-0.8-0.8-2-0.8-2c0-0.3-0.3-0.6-0.6-0.5c-0.3,0-0.6,0.3-0.5,0.6c0,0.1,0.1,1.6,1.1,2.7
	c0.9,1,2,1.2,2.6,1.2c0,0,0,0,0,0v4.1c-3.6-0.3-6.4-3.4-6.4-7C7.3,9,10.5,5.8,14.4,5.8z"/>
</svg>
