<?xml version="1.0" encoding="utf-8"?>
<!-- Generator: Adobe Illustrator 21.1.0, SVG Export Plug-In . SVG Version: 6.00 Build 0)  -->
<svg version="1.1" id="Layer_1" xmlns="http://www.w3.org/2000/svg" xmlns:xlink="http://www.w3.org/1999/xlink" x="0px" y="0px"
	 viewBox="0 0 30 30" style="enable-background:new 0 0 30 30;" xml:space="preserve">
<path fill="#FFFFFF" d="M28.5,15.6c-1.1-1.6-2.7-1.6-3.8-1.2c-0.1-1-0.5-2.6-2.3-3.7c-1.9-1.2-3.8-0.7-4.8-0.1c-0.7-0.9-2.8-2.9-6.6-2.4
	c-5,0.6-6,4.4-6.2,6.1c-1.1-0.3-2.8-0.3-4,1.2c-0.7,0.9-0.9,1.8-0.8,2.7c0.3,1.8,1.9,2.9,2,3c0.1,0.1,0.2,0.1,0.3,0.1c0,0,0,0,0,0
	L26.9,21c0.1,0,0.3-0.1,0.3-0.1C27.4,20.8,30.1,18.1,28.5,15.6z M26.7,20l-7.1,0.1v-1.2l1.7-1.4c0.2-0.2,0.2-0.5,0.1-0.7
	c-0.2-0.2-0.5-0.2-0.7-0.1l-1,0.9v-2.4c0-0.3-0.2-0.5-0.5-0.5s-0.5,0.2-0.5,0.5v4.9l-6.6,0.1v-4l1.5-1.3c0.2-0.2,0.2-0.5,0.1-0.7
	c-0.2-0.2-0.5-0.2-0.7-0.1l-0.8,0.7v-1.6c0-0.3-0.2-0.5-0.5-0.5s-0.5,0.2-0.5,0.5v4.4l-1.4-0.9c-0.2-0.1-0.5-0.1-0.7,0.2
	c-0.1,0.2-0.1,0.5,0.2,0.7l2,1.2v1.4l-8.5,0.1C2.2,20,1.2,19.1,1,18c-0.1-0.7,0.1-1.3,0.6-2c0.6-0.8,1.4-1,2-1C4.4,15,5,15.3,5,15.4
	c0.2,0.1,0.3,0.1,0.5,0c0.2-0.1,0.2-0.3,0.2-0.4c0-0.2,0-5.2,5.4-5.8c4.1-0.5,5.9,2.3,5.9,2.4c0.1,0.1,0.2,0.2,0.3,0.2
	c0.1,0,0.3,0,0.4-0.1c0,0,1.9-1.5,4.1-0.1c2.1,1.4,1.8,3.5,1.8,3.6c0,0.2,0.1,0.4,0.2,0.5c0.2,0.1,0.4,0.1,0.5,0
	c0.2-0.1,2-1.2,3.2,0.6C28.7,17.7,27.2,19.5,26.7,20z"/>
</svg>
