<?xml version="1.0" encoding="utf-8"?>
<!-- Generator: Adobe Illustrator 21.1.0, SVG Export Plug-In . SVG Version: 6.00 Build 0)  -->
<svg version="1.1" id="Layer_1" xmlns="http://www.w3.org/2000/svg" xmlns:xlink="http://www.w3.org/1999/xlink" x="0px" y="0px"
	 viewBox="0 0 30 30" style="enable-background:new 0 0 30 30;" xml:space="preserve">
<path fill="#FFFFFF" d="M21.4,12.3c-1-2.6-3.5-4.4-6.3-4.7c-0.5,0-1.5-0.1-2.7,0.3c-0.1,0-0.2,0-0.3,0.1C12.1,8,12,8,11.9,8.1c0,0,0,0,0,0
	c-0.4,0.1-0.7,0.3-1.1,0.5c-0.1,0-0.1,0.1-0.2,0.1C10.1,9,9.8,9.3,9.4,9.6C9.4,9.7,9.3,9.7,9.3,9.8c0,0-0.1,0.1-0.1,0.1
	c-0.5,0.5-0.9,1.1-1.2,1.7c-0.1,0.3-0.3,0.6-0.4,1c-0.3,0.9-0.3,1.9-0.3,1.9s-0.6,0-1.5,0.5c0,0,0,0,0,0c-1.2,0.7-2,2.1-2,3.5
	c0,2.2,1.8,4.1,4.1,4.1h13.5c0.1,0,0.1,0,0.2,0c2.6-0.2,4.6-2.5,4.6-5.1C26.1,14.7,24.1,12.5,21.4,12.3z M21.3,21.1
	C21.2,21.1,21.2,21.1,21.3,21.1l-13.5,0c-1.5,0-2.7-1.2-2.7-2.7c0-1.5,1.2-2.7,2.7-2.7c0.4,0,0.7-0.3,0.7-0.7c0,0,0-0.1,0-0.1l0-0.1
	c0-0.3,0.1-0.7,0.1-1l0-0.1c0-0.1,0-0.2,0.1-0.3c0-0.1,0-0.1,0.1-0.2l0-0.1c0-0.1,0.1-0.2,0.1-0.2l0,0c0.4-1.1,1.1-2,2-2.7l0.1-0.1
	c1.1-0.8,2.3-1.2,3.6-1.2c2.6,0,5,1.7,5.8,4.2c0.1,0.3,0.4,0.5,0.7,0.5c2.1,0,3.8,1.7,3.8,3.8C24.8,19.3,23.2,21,21.3,21.1z"/>
</svg>
