<?xml version="1.0" encoding="utf-8"?>
<!-- Generator: Adobe Illustrator 21.1.0, SVG Export Plug-In . SVG Version: 6.00 Build 0)  -->
<svg version="1.1" id="Layer_1" xmlns="http://www.w3.org/2000/svg" xmlns:xlink="http://www.w3.org/1999/xlink" x="0px" y="0px"
	 viewBox="0 0 30 30" style="enable-background:new 0 0 30 30;" xml:space="preserve">
<path fill="#FFFFFF" d="M22.6,12.8h-7.2v-1.2c0.9-0.1,2.5-0.4,3.6-1.4c1.6-1.6,1.5-4.2,1.5-4.3c0-0.4-0.3-0.7-0.7-0.7c0,0-0.1,0-0.2,0
	c-0.6,0-2.7,0.1-4.1,1.5c-0.2,0.2-0.4,0.5-0.6,0.8c-0.3-0.7-0.7-1.3-1.2-1.8C12,3.9,9.4,3.7,8.6,3.7c-0.1,0-0.2,0-0.2,0
	C8,3.8,7.7,4.1,7.7,4.4c0,0.3-0.1,3.4,1.8,5.3c1.3,1.3,3.3,1.7,4.4,1.8v1.2H6.8c-0.4,0-0.7,0.3-0.7,0.7v3.4c0,0.4,0.3,0.7,0.7,0.7
	h0.7l1.5,5.1c0,0,0,0,0,0.1l1,3.5c0.1,0.3,0.4,0.5,0.7,0.5H19c0.3,0,0.6-0.2,0.7-0.5l2.5-8.7h0.5c0.4,0,0.7-0.3,0.7-0.7v-3.4
	C23.4,13.1,23,12.8,22.6,12.8z M16.6,7.6c0.7-0.7,1.7-0.9,2.4-1c-0.1,0.7-0.3,1.7-1,2.4c-0.7,0.7-1.7,0.9-2.4,1
	C15.6,9.4,15.9,8.3,16.6,7.6z M10.6,8.7c-1-1-1.3-2.5-1.4-3.5c0.9,0.1,2.5,0.4,3.5,1.4c1,1,1.3,2.5,1.4,3.5
	C13.1,10,11.6,9.7,10.6,8.7z M18.4,25.4h-7.2l-0.5-1.7c0,0,0-0.1,0-0.1l-1.7-6h11.7L18.4,25.4z M21.9,16.2H7.5v-2h14.4V16.2z"/>
</svg>
