<?xml version="1.0" encoding="utf-8"?>
<!-- Generator: Adobe Illustrator 21.1.0, SVG Export Plug-In . SVG Version: 6.00 Build 0)  -->
<svg version="1.1" id="Layer_1" xmlns="http://www.w3.org/2000/svg" xmlns:xlink="http://www.w3.org/1999/xlink" x="0px" y="0px"
	 viewBox="0 0 30 30" style="enable-background:new 0 0 30 30;" xml:space="preserve">
<path fill="#FFFFFF" d="M25.1,7.3c-0.2,0-4.4-0.9-6.6-0.2c-1.3,0.5-2.3,1.3-2.8,2.4c-0.4,0.9-0.4,1.8,0,2.8c-0.3,0.3-0.6,0.6-0.9,0.9
	c-0.2-1.3-0.7-2.3-1.1-2.8c0.4-0.8,0.5-2.3-1-3.8c-0.9-0.9-2.5-2.2-2.6-2.3C10,4.2,9.8,4.2,9.6,4.2C9.4,4.3,9.3,4.5,9.3,4.7
	c0,0.1-0.7,2.9,0.4,4.6c0.8,1.3,2.3,1.9,3.2,1.9c0,0,0,0,0,0c0.3,0.4,0.7,1.2,0.8,2.1c-0.7-0.3-1.8-0.6-3-0.4
	c-0.5-0.7-1.4-1.6-2.7-1.2c-1.6,0.5-3.2,2-3.2,2c-0.1,0.1-0.2,0.4-0.2,0.6c0,0.2,0.2,0.4,0.4,0.4c0.2,0.1,2,0.6,3.2,0.6
	c0.1,0,0.2,0,0.3,0c1.1-0.1,1.9-0.9,2.2-1.3c0,0,0,0,0.1,0c1.4-0.2,2.9,0.4,3,0.5c0,0.8,0,2.5,0,4.1H8c-0.3,0-0.6,0.3-0.6,0.6
	c0,0.3,0.3,0.6,0.6,0.6h5.8c0,0.6,0,1.1,0,1.4l-0.9,1l-2-0.9c-0.3-0.1-0.6,0-0.8,0.3c-0.1,0.3,0,0.6,0.3,0.8l1.7,0.7l-2.8,3.1
	c-0.2,0.2-0.2,0.6,0,0.8c0.1,0.1,0.3,0.2,0.4,0.2c0.2,0,0.3-0.1,0.4-0.2l1.3-1.4l0.1,0.7c0,0.3,0.3,0.5,0.6,0.5c0,0,0,0,0.1,0
	c0.3,0,0.6-0.3,0.5-0.6l-0.2-1.8l1.1-1.2c0,0,0,0,0,0l0.9-0.9l0.6,0.7l-0.3,1.8c-0.1,0.3,0.2,0.6,0.5,0.7c0,0,0.1,0,0.1,0
	c0.3,0,0.5-0.2,0.6-0.5l0.1-0.8l2.1,2.5c0.1,0.1,0.3,0.2,0.5,0.2c0.1,0,0.3,0,0.4-0.1c0.2-0.2,0.3-0.6,0.1-0.8l-1.1-1.3l1.6-0.2
	c0.3,0,0.6-0.3,0.5-0.7c0-0.3-0.3-0.6-0.7-0.5l-2.3,0.3l-2-2.4c0-0.3,0-0.8,0-1.4h6.1c0.3,0,0.6-0.3,0.6-0.6c0-0.3-0.3-0.6-0.6-0.6
	h-6.1c0-1.3,0-2.7,0-3.7c0.2-0.3,0.7-0.9,1.4-1.6c0.5,0.7,1.2,1.2,2.1,1.5c0.4,0.1,0.7,0.1,1.1,0.1c0.9,0,1.8-0.3,2.7-0.8
	c2-1.3,3.2-5.8,3.4-6.3c0-0.2,0-0.3-0.1-0.5C25.4,7.4,25.2,7.3,25.1,7.3z M8.3,14.2c-0.5,0.1-1.3-0.1-2-0.3c0.5-0.4,1.2-0.8,1.9-1
	c0.7-0.2,1.1,0.3,1.3,0.6C9.3,13.7,8.8,14.1,8.3,14.2z M10.7,8.7c-0.5-0.8-0.5-2-0.4-2.8c0.5,0.4,1.2,1,1.7,1.5
	c1.2,1.2,0.9,2.2,0.7,2.5C12.2,9.9,11.2,9.6,10.7,8.7z M21.5,13.3c-0.9,0.6-1.9,0.8-2.8,0.5c-0.6-0.2-1.2-0.6-1.5-1.2
	c0.2-0.2,0.4-0.4,0.6-0.5c1.5-1.1,4.5-1.9,4.5-1.9c0.3-0.1,0.5-0.4,0.4-0.7C22.6,9.1,22.3,8.9,22,9c-0.1,0-3.2,0.9-4.9,2.1
	c-0.1,0.1-0.3,0.2-0.4,0.3c-0.1-0.5-0.1-1,0.1-1.5c0.3-0.8,1.1-1.4,2.1-1.8C19.4,8.1,20.1,8,20.8,8c1.2,0,2.5,0.2,3.4,0.3
	C23.7,9.8,22.7,12.5,21.5,13.3z"/>
</svg>
