<?xml version="1.0" encoding="utf-8"?>
<!-- Generator: Adobe Illustrator 21.1.0, SVG Export Plug-In . SVG Version: 6.00 Build 0)  -->
<svg version="1.1" id="Layer_1" xmlns="http://www.w3.org/2000/svg" xmlns:xlink="http://www.w3.org/1999/xlink" x="0px" y="0px"
	 viewBox="0 0 30 30" style="enable-background:new 0 0 30 30;" xml:space="preserve">
<path fill="#FFFFFF" d="M20.9,10.1c-0.1-0.7-0.5-1.8-1.5-2.2c0-0.1,0.1-0.3,0.1-0.5c0.2-0.7,0.7-0.9,0.8-0.9c0.3-0.1,0.5-0.4,0.5-0.7
	c-0.1-0.3-0.4-0.5-0.7-0.5c-0.5,0.1-1.4,0.6-1.7,1.7c-0.1,0.3-0.1,0.5-0.2,0.7c-0.5,0.1-0.8,0.3-0.9,0.5c-0.6,0.7-0.5,1.6-0.5,1.7
	c-0.5,0.4-0.9,1.1-1.1,2c-0.1,0.5-0.2,1.1-0.2,1.8c-0.1,1.5-0.3,3.4-1.4,5.3c-1.1,2-4.8,3-6.4,3.4c-1,0.3-1.2,0.3-1.3,0.7
	c-0.1,0.3,0,0.5,0.2,0.7c0.1,0.1,0.8,0.5,2.6,0.5c0.8,0,1.8-0.1,3.1-0.3c3.9-0.7,7.8-2.2,9.7-8.2c0.9-2.8,0.3-4.4-0.3-5.2
	C21.4,10.5,21.2,10.3,20.9,10.1z M18.2,9.2c0,0,0.2-0.2,0.5-0.2c0,0,0,0,0,0c0.4,0,0.6,0.3,0.8,0.5c-0.3-0.1-0.6-0.1-0.8-0.1
	c-0.2,0-0.5,0-0.7,0.1C18.1,9.4,18.1,9.3,18.2,9.2z M20.8,15.7c-1.6,5-4.7,6.6-8.8,7.4c-0.9,0.2-1.7,0.3-2.3,0.3
	c2-0.6,4.4-1.7,5.4-3.5c1.2-2.1,1.4-4.3,1.5-5.8c0.1-0.6,0.1-1.2,0.2-1.6c0.3-1.3,0.7-1.7,1.9-1.7c0,0,0.1,0,0.1,0
	c0.5,0,1.3,0.2,1.8,0.9C21.4,12.4,21.4,13.8,20.8,15.7z"/>
</svg>
