<?xml version="1.0" encoding="utf-8"?>
<!-- Generator: Adobe Illustrator 21.1.0, SVG Export Plug-In . SVG Version: 6.00 Build 0)  -->
<svg version="1.1" id="Layer_1" xmlns="http://www.w3.org/2000/svg" xmlns:xlink="http://www.w3.org/1999/xlink" x="0px" y="0px"
	 viewBox="0 0 30 30" style="enable-background:new 0 0 30 30;" xml:space="preserve">
<g>
	<path fill="#FFFFFF" d="M5.2,13.6c0-0.4-0.3-0.7-0.7-0.7H1.2c-0.4,0-0.7,0.3-0.7,0.7c0,0.4,0.3,0.7,0.7,0.7h3.3C4.9,14.3,5.2,13.9,5.2,13.6z"/>
	<path fill="#FFFFFF" d="M10.4,8.4c0.4,0,0.7-0.3,0.7-0.7V4.4c0-0.4-0.3-0.7-0.7-0.7S9.7,4,9.7,4.4v3.3C9.7,8.1,10,8.4,10.4,8.4z"/>
	<path fill="#FFFFFF" d="M5.7,9.9L5.7,9.9L5.7,9.9C5.9,10,6,10.1,6.2,10.1c0.2,0,0.4-0.1,0.5-0.2c0.3-0.3,0.3-0.7,0-1L4.4,6.6c-0.3-0.3-0.7-0.3-1,0
		c-0.3,0.3-0.3,0.7,0,1L5.7,9.9z"/>
	<path fill="#FFFFFF" d="M6.9,17.7c0-0.2-0.1-0.4-0.2-0.5c-0.3-0.3-0.7-0.3-1,0l-2.3,2.3c-0.3,0.3-0.3,0.7,0,1c0.1,0.1,0.3,0.2,0.5,0.2
		c0.2,0,0.4-0.1,0.5-0.2l2.3-2.3C6.8,18.1,6.9,17.9,6.9,17.7z"/>
	<path fill="#FFFFFF" d="M24.5,14.4c-1.2-2.9-4-4.8-7.2-4.8c-0.9,0-1.7,0.1-2.5,0.4C14.9,10,15,10,15,9.9l2.3-2.3c0.1-0.1,0.2-0.3,0.2-0.5
		c0-0.2-0.1-0.4-0.2-0.5c-0.3-0.3-0.7-0.3-1,0L14,8.9c-0.1,0.1-0.2,0.3-0.2,0.5c0,0.2,0.1,0.4,0.2,0.5c0.1,0.1,0.3,0.2,0.5,0.2
		c0,0,0.1,0,0.1,0c-0.4,0.2-0.8,0.4-1.2,0.6c-0.8-0.8-1.9-1.3-3.1-1.3c-2.3,0-4.2,1.9-4.2,4.2c0,1.5,0.8,2.9,2.1,3.6
		c-1.3,0.8-2.1,2.1-2.1,3.6c0,2.3,1.9,4.2,4.2,4.2h14c0.1,0,0.1,0,0.2,0c2.7-0.2,4.8-2.6,4.8-5.3C29.4,17,27.2,14.7,24.5,14.4z
		 M7.6,13.6c0-1.5,1.3-2.8,2.8-2.8c0.7,0,1.4,0.3,1.9,0.8c-1.2,1-2,2.4-2.4,3.9l0,0.1c0,0,0,0.1,0,0.2c0,0.1,0,0.2,0,0.2
		c0,0,0,0.1,0,0.1c0,0.1,0,0.1,0,0.2l0,0.1c0,0,0,0,0,0.1C8.5,16,7.6,14.9,7.6,13.6z M24.3,23.6C24.3,23.6,24.3,23.6,24.3,23.6
		l-14,0c-1.5,0-2.8-1.3-2.8-2.8c0-1.5,1.3-2.8,2.8-2.8c0.4,0,0.7-0.3,0.7-0.7c0-0.1,0-0.1,0-0.2l0-0.1c0-0.3,0.1-0.7,0.1-1.1l0-0.1
		c0-0.1,0-0.2,0.1-0.3c0-0.1,0-0.1,0.1-0.2l0-0.1c0-0.1,0.1-0.2,0.1-0.2l0,0c0.4-1.1,1.1-2.1,2.1-2.8l0.1-0.1
		c1.1-0.8,2.4-1.2,3.7-1.2c2.7,0,5.1,1.7,6,4.3c0.1,0.3,0.4,0.5,0.7,0.5c2.2,0,3.9,1.7,3.9,3.9C28,21.8,26.4,23.5,24.3,23.6z"/>
</g>
</svg>
