<svg xmlns="http://www.w3.org/2000/svg" width="27" height="20" viewBox="0 0 27 20">
  <defs>
    <style>
      .cls-1 {
        fill-rule: evenodd;
      }
    </style>
  </defs>
  <path id="basket" class="cls-1" d="M260.166,41.527h-2.827l-5.1-6.213a0.867,0.867,0,0,0-1.185-.134,0.79,0.79,0,0,0-.139,1.139h0l4.271,5.208H240.153l4.26-5.208a0.79,0.79,0,0,0-.139-1.139,0.866,0.866,0,0,0-1.184.134h0l-5.1,6.213h-3.149a0.811,0.811,0,1,0,0,1.621H236.1l1.57,9.15a3.337,3.337,0,0,0,3.319,2.7H254.02a3.337,3.337,0,0,0,3.319-2.7l1.562-9.136h1.256a0.811,0.811,0,1,0,0-1.621Zm-4.482,10.5a1.669,1.669,0,0,1-1.664,1.351H240.988a1.67,1.67,0,0,1-1.664-1.351l-1.517-8.874H257.2Z" transform="translate(-234 -35)"/>
</svg>
