<svg xmlns="http://www.w3.org/2000/svg" viewBox="0 0 27 19.99"><defs><style>.cls-1{fill:#b2ce88;}</style></defs><title>Ресурс 1</title><g id="Слой_2" data-name="Слой 2"><g id="Слой_1-2" data-name="Слой 1"><path d="M26.16,6.52H23.34L18.24.31A.88.88,0,0,0,17.05.17a.8.8,0,0,0-.16,1.11l0,0h0l4.27,5.21h-15l4.26-5.21A.79.79,0,0,0,10.31.2l0,0A.87.87,0,0,0,9.09.31h0L4,6.52H.84A.82.82,0,0,0,0,7.3a.8.8,0,0,0,.78.84H2.1l1.57,9.15A3.33,3.33,0,0,0,7,20H20a3.34,3.34,0,0,0,3.32-2.7L24.9,8.16h1.26A.81.81,0,0,0,27,7.37a.8.8,0,0,0-.78-.83h-.05Z"/><path class="cls-1" d="M21.68,17A1.66,1.66,0,0,1,20,18.37H7A1.67,1.67,0,0,1,5.32,17L3.81,8.15H23.2Z"/></g></g></svg>