<svg xmlns="http://www.w3.org/2000/svg" width="27" height="26.969" viewBox="0 0 27 26.969">
  <defs>
    <style>
      .cls-1 {
        fill: #cdd2d6;
        fill-rule: evenodd;
      }
    </style>
  </defs>
  <path id="close" class="cls-1" d="M1197.6,208.508l10.97-10.97a1.5,1.5,0,0,0,0-2.1,1.476,1.476,0,0,0-2.1,0l-10.96,10.97-10.97-10.97a1.5,1.5,0,0,0-2.1,0,1.473,1.473,0,0,0,0,2.1l10.97,10.97-10.97,10.971a1.5,1.5,0,0,0,0,2.1,1.427,1.427,0,0,0,1.05.419,1.557,1.557,0,0,0,1.05-.419l10.97-10.971,10.96,10.971a1.427,1.427,0,0,0,1.05.419,1.557,1.557,0,0,0,1.05-.419,1.5,1.5,0,0,0,0-2.1Z" transform="translate(-1182.03 -195.031)"/>
</svg>
