<svg xmlns="http://www.w3.org/2000/svg" viewBox="0 0 23.03 19.99"><defs><style>.cls-1{fill:#b2ce88;}</style></defs><title>Ресурс 1</title><g id="Слой_2" data-name="Слой 2"><g id="Слой_1-2" data-name="Слой 1"><path d="M6.08,0a6,6,0,0,0-4.3,1.8,6.17,6.17,0,0,0,0,8.67L11,19.76a.78.78,0,0,0,1.11,0h0l9.19-9.28a6.17,6.17,0,0,0,0-8.67,6,6,0,0,0-8.55-.05l0,.05L11.53,3,10.38,1.8A6,6,0,0,0,6.08,0Z"/><path class="cls-1" d="M6.08,1.56A4.51,4.51,0,0,1,9.27,2.91L11,4.63a.78.78,0,0,0,1.11,0h0l1.69-1.71a4.43,4.43,0,0,1,6.28-.08l.09.08a4.58,4.58,0,0,1,0,6.45q-4.32,4.35-8.63,8.72L2.89,9.36a4.58,4.58,0,0,1,0-6.45A4.5,4.5,0,0,1,6.07,1.56h0Z"/></g></g></svg>