<svg xmlns="http://www.w3.org/2000/svg" width="23.031" height="19.969" viewBox="0 0 23.031 19.969">
  <defs>
    <style>
      .cls-1 {
        fill-rule: evenodd;
      }
    </style>
  </defs>
  <path id="like" class="cls-1" d="M178.047,35a6.027,6.027,0,0,0-4.3,1.8,6.173,6.173,0,0,0,0,8.668l9.172,9.293a0.783,0.783,0,0,0,1.111,0l0,0q4.593-4.64,9.188-9.276a6.18,6.18,0,0,0,0-8.676,6.044,6.044,0,0,0-8.6,0L183.5,37.963,182.35,36.8a6.043,6.043,0,0,0-4.3-1.8h0Zm0,1.563a4.485,4.485,0,0,1,3.191,1.349l1.7,1.719a0.783,0.783,0,0,0,1.111,0l0,0,1.686-1.71a4.447,4.447,0,0,1,6.374,0,4.567,4.567,0,0,1,0,6.447q-4.315,4.359-8.632,8.726l-8.616-8.734a4.568,4.568,0,0,1,0-6.447,4.465,4.465,0,0,1,3.183-1.349h0Z" transform="translate(-171.969 -35)"/>
</svg>
