<svg xmlns="http://www.w3.org/2000/svg" viewBox="0 0 16 16"><title>Ресурс 1</title><g id="Слой_2" data-name="Слой 2"><g id="Layer_1" data-name="Layer 1"><path style="fill: #bababa" d="M15.42,16V14.32H10.09V11.85a7.46,7.46,0,0,0,4.17-1.67A7.8,7.8,0,0,0,16,5a.81.81,0,0,0-.81-.84H15A6.88,6.88,0,0,0,10.2,6a7.1,7.1,0,0,0-.69,1c-.35-.83-.81-2.75-1.39-3.35A14.34,14.34,0,0,0,1,0H.81A1,1,0,0,0,0,.84C0,1.2-.11,7.3,2.09,9.58c1.5,1.56,5,2,6.26,2.15V14.2H2.67V16ZM11.48,7.06a4.77,4.77,0,0,1,2.78-1.19A5.09,5.09,0,0,1,13.1,8.74a4.73,4.73,0,0,1-2.78,1.2A4.64,4.64,0,0,1,11.48,7.06ZM3.36,8.38C2.2,7.18,1.86,3,1.74,1.8A13.4,13.4,0,0,1,7,4.67c1.16,1.2,1.5,4.19,1.62,5.39C7.42,9.94,4.52,9.58,3.36,8.38Z"/></g></g></svg>