<svg xmlns="http://www.w3.org/2000/svg" width="20" height="20" viewBox="0 0 20 20">
  <defs>
    <style>
      .cls-1 {
        fill-rule: evenodd;
      }
    </style>
  </defs>
  <path id="search" class="cls-1" d="M309.159,35.263a7.893,7.893,0,1,0,5.2,13.829l5.485,5.492a0.522,0.522,0,0,0,.741,0,0.532,0.532,0,0,0,0-.748L315.1,48.352a7.888,7.888,0,0,0-5.938-13.089h0Zm0,1.052a6.84,6.84,0,1,1-6.843,6.84A6.834,6.834,0,0,1,309.159,36.316ZM320.213,55a0.786,0.786,0,0,1-.557-0.23l-5.314-5.32a8.163,8.163,0,1,1,1.113-1.112l5.314,5.312A0.79,0.79,0,0,1,320.213,55Zm-5.844-6.269,5.66,5.666a0.257,0.257,0,0,0,.368,0,0.268,0.268,0,0,0,0-.376l-5.66-5.658,0.162-.186a7.645,7.645,0,1,0-.716.715Zm-5.21,1.528a7.1,7.1,0,1,1,7.106-7.1A7.112,7.112,0,0,1,309.159,50.26Zm0-13.681a6.577,6.577,0,1,0,6.579,6.577A6.586,6.586,0,0,0,309.159,36.579Z" transform="translate(-301 -35)"/>
</svg>
