<?xml version="1.0" encoding="utf-8"?>
<!-- Generator: Adobe Illustrator 22.1.0, SVG Export Plug-In . SVG Version: 6.00 Build 0)  -->
<svg version="1.1" id="Слой_1" xmlns="http://www.w3.org/2000/svg" xmlns:xlink="http://www.w3.org/1999/xlink" x="0px" y="0px"
	 viewBox="0 0 20 20" style="enable-background:new 0 0 20 20;" xml:space="preserve">
<path d="M19.8,18.7l-5.3-5.3c2.5-3,2.5-7.4,0-10.4C11.6-0.5,6.5-1,3,1.8c-3.5,2.9-4,8-1.1,11.5c2.9,3.5,8,4,11.5,1.1l5.3,5.3
	c0.1,0.1,0.3,0.2,0.6,0.2c0.2,0,0.4-0.1,0.6-0.2C20.1,19.5,20.1,19,19.8,18.7z M8.2,14.7c-3.6,0-6.6-2.9-6.6-6.6s2.9-6.6,6.6-6.6
	l0,0c3.6,0,6.6,2.9,6.6,6.6C14.8,11.7,11.8,14.7,8.2,14.7z"/>
</svg>
