<svg xmlns="http://www.w3.org/2000/svg" viewBox="0 0 20.01 20.02"><defs><style>.cls-1{fill:#b2ce88;}</style></defs><title>Ресурс 1</title><g id="Слой_2" data-name="Слой 2"><g id="Слой_1-2" data-name="Слой 1"><path d="M8.17.28a7.9,7.9,0,1,0,5.2,13.83l5.48,5.49a.51.51,0,0,0,.74,0h0a.53.53,0,0,0,0-.75l-5.48-5.48A7.89,7.89,0,0,0,8.17.28Z"/><path d="M8.17,1.33A6.84,6.84,0,1,1,1.32,8.17,6.84,6.84,0,0,1,8.17,1.33Z"/><path d="M19.22,20a.83.83,0,0,1-.56-.23l-5.31-5.32a8.17,8.17,0,1,1,1.11-1.11l5.32,5.31a.78.78,0,0,1,0,1.11A.8.8,0,0,1,19.22,20Z"/><path d="M8.17,15.28a7.1,7.1,0,1,1,7.1-7.1,7.12,7.12,0,0,1-7.1,7.1Z"/><path class="cls-1" d="M8.17,1.6a6.58,6.58,0,1,0,6.58,6.57A6.57,6.57,0,0,0,8.17,1.6Z"/></g></g></svg>